# xmcd
#
# Track frame offsets: 
#        150
#        14504
#        25447
#        39284
#        53807
#        69515
#        84182
#        94886
#        110331
#        123848
#        137908
#        149844
#
# Disc length: 2133 seconds
#
# Revision: 3
# Processed by: cddbd v1.5.2PL0 Copyright (c) Steve Scherf et al.
# Submitted via: ExactAudioCopy v0.99pb4
#
DISCID=a408530c
DTITLE=Finkenauer - Unter Grund
DYEAR=2009
DGENRE=Avantgarde
TTITLE0=Ich blicke an dir vorbei
TTITLE1=Nebenan
TTITLE2=Unter Grund
TTITLE3=Weisst du noch
TTITLE4=Verdammt sein
TTITLE5=Und wieder kommt die Nacht
TTITLE6=Verrosteter Revolver
TTITLE7=Euer Wort
TTITLE8=Zu glatt
TTITLE9=Vor die Hunde gehen
TTITLE10=Sucht
TTITLE11=Nur aufstehn
EXTD=
EXTT0=
EXTT1=
EXTT2=
EXTT3=
EXTT4=
EXTT5=
EXTT6=
EXTT7=
EXTT8=
EXTT9=
EXTT10=
EXTT11=
PLAYORDER=
